# xmcd CD database file
#
# Track frame offsets:
#	150
#	13964
#	23134
#	36876
#	46660
#	57794
#	68659
#	81527
#	92743
#	106797
#	116424
#	129363
#	141782
#	154613
#	166475
#	178041
#	187157
#	198265
#	209632
#	220036
#
# Disc length: 3136 seconds
#
# Revision: 3
# Processed by: cddbd v1.5.2PL0 Copyright (c) Steve Scherf et al.
# Submitted via: CDex 1.51
#
DISCID=160c3e14
DTITLE=Frankie Laine - Riders In The Sky
DYEAR=1997
DGENRE=
TTITLE0=Riders In The Sky
TTITLE1=Rawhide
TTITLE2=Cool Water
TTITLE3=Gunfight At The O.K Corral
TTITLE4=The 3:10 To Yuma
TTITLE5=Hummingbird
TTITLE6=That Lucky Old Sun
TTITLE7=North To Alaska
TTITLE8=Don't Fence Me In
TTITLE9=Blazing Saddles
TTITLE10=Cry Of The Wild Goose
TTITLE11=High Noon (do not forsake me)
TTITLE12=Moonlit Gambler
TTITLE13=Wanted Man
TTITLE14=Mule Train
TTITLE15=Your Cheatin' Heart
TTITLE16=Call OF The Wind
TTITLE17=Along The Navajo Trail
TTITLE18=The Hanging Tree
TTITLE19=Tumbling Tumbleweeds
EXTD=YEAR: 1997
EXTT0=
EXTT1=
EXTT2=
EXTT3=
EXTT4=
EXTT5=
EXTT6=
EXTT7=
EXTT8=
EXTT9=
EXTT10=
EXTT11=
EXTT12=
EXTT13=
EXTT14=
EXTT15=
EXTT16=
EXTT17=
EXTT18=
EXTT19=
PLAYORDER=
